<?xml version="1.0" standalone="no"?>
<!DOCTYPE svg PUBLIC "-//W3C//DTD SVG 20010904//EN"
 "http://www.w3.org/TR/2001/REC-SVG-20010904/DTD/svg10.dtd">
<svg version="1.0" xmlns="http://www.w3.org/2000/svg"
 width="500.000000pt" height="500.000000pt" viewBox="0 0 500.000000 500.000000"
 preserveAspectRatio="xMidYMid meet">

<g transform="translate(0.000000,500.000000) scale(0.100000,-0.100000)"
fill="#000000" stroke="none">
<path d="M1210 4530 c-115 -24 -252 -126 -315 -234 -16 -27 -37 -78 -47 -115
-17 -62 -18 -127 -18 -1067 0 -629 4 -1021 10 -1055 33 -177 199 -345 375
-381 43 -8 61 -19 99 -58 58 -60 82 -73 1256 -663 699 -351 961 -478 1005
-487 262 -54 525 117 580 377 22 101 22 1995 0 2096 -26 123 -100 231 -209
306 -49 34 -141 71 -176 71 -11 0 -51 29 -89 64 -67 61 -116 87 -1107 585
-570 287 -1059 531 -1088 543 -59 23 -204 33 -276 18z"/>
</g>
</svg>
